<?xml version="1.0" standalone="no"?>
<!DOCTYPE svg PUBLIC "-//W3C//DTD SVG 1.1//EN" "http://www.w3.org/Graphics/SVG/1.1/DTD/svg11.dtd">
<svg xmlns="http://www.w3.org/2000/svg" xmlns:xlink="http://www.w3.org/1999/xlink" width="375" zoomAndPan="magnify" viewBox="0 0 375 374.999991" height="375" preserveAspectRatio="xMidYMid meet" version="1.0"><defs><g/></defs><g fill="#000000" fill-opacity="1"><g transform="translate(88.271483, 207.749986)"><g><path d="M 2.640625 0 L 2.640625 -42.90625 L 9.4375 -42.90625 L 26.234375 -8.28125 L 43.09375 -42.90625 L 49.765625 -42.90625 L 49.765625 0 L 43.703125 0 L 43.703125 -30.890625 L 28.4375 0 L 23.78125 0 L 8.640625 -30.953125 L 8.640625 0 Z M 2.640625 0 "/></g></g></g><g fill="#000000" fill-opacity="1"><g transform="translate(140.673586, 207.749986)"><g><path d="M 25.1875 0.734375 C 20.695312 0.734375 16.753906 -0.148438 13.359375 -1.921875 C 9.972656 -3.703125 7.335938 -6.25 5.453125 -9.5625 C 3.578125 -12.875 2.640625 -16.859375 2.640625 -21.515625 C 2.640625 -26.210938 3.585938 -30.226562 5.484375 -33.5625 C 7.390625 -36.894531 10.035156 -39.445312 13.421875 -41.21875 C 16.816406 -43 20.738281 -43.890625 25.1875 -43.890625 C 29.769531 -43.890625 33.753906 -43.007812 37.140625 -41.25 C 40.535156 -39.488281 43.171875 -36.941406 45.046875 -33.609375 C 46.929688 -30.285156 47.875 -26.296875 47.875 -21.640625 C 47.875 -16.941406 46.941406 -12.925781 45.078125 -9.59375 C 43.222656 -6.257812 40.597656 -3.703125 37.203125 -1.921875 C 33.816406 -0.148438 29.8125 0.734375 25.1875 0.734375 Z M 9.140625 -21.515625 C 9.140625 -16.328125 10.492188 -12.300781 13.203125 -9.4375 C 15.921875 -6.582031 19.914062 -5.15625 25.1875 -5.15625 C 30.539062 -5.15625 34.566406 -6.59375 37.265625 -9.46875 C 39.960938 -12.351562 41.3125 -16.367188 41.3125 -21.515625 C 41.3125 -26.742188 39.941406 -30.796875 37.203125 -33.671875 C 34.460938 -36.554688 30.457031 -38 25.1875 -38 C 19.957031 -38 15.972656 -36.566406 13.234375 -33.703125 C 10.503906 -30.847656 9.140625 -26.785156 9.140625 -21.515625 Z M 9.140625 -21.515625 "/></g></g></g><g fill="#000000" fill-opacity="1"><g transform="translate(191.114436, 207.749986)"><g><path d="M 2.640625 0 L 2.640625 -42.90625 L 19.984375 -42.90625 C 27.097656 -42.90625 32.6875 -41.128906 36.75 -37.578125 C 40.8125 -34.023438 42.84375 -28.734375 42.84375 -21.703125 C 42.84375 -16.921875 41.867188 -12.914062 39.921875 -9.6875 C 37.984375 -6.457031 35.207031 -4.035156 31.59375 -2.421875 C 27.976562 -0.804688 23.660156 0 18.640625 0 Z M 9.015625 -5.890625 L 18.703125 -5.890625 C 24.785156 -5.890625 29.234375 -7.234375 32.046875 -9.921875 C 34.867188 -12.617188 36.28125 -16.503906 36.28125 -21.578125 C 36.28125 -26.679688 34.984375 -30.519531 32.390625 -33.09375 C 29.796875 -35.675781 25.660156 -36.96875 19.984375 -36.96875 L 9.015625 -36.96875 Z M 9.015625 -5.890625 "/></g></g></g><g fill="#000000" fill-opacity="1"><g transform="translate(236.284435, 207.749986)"><g><path d="M 25.1875 0.734375 C 20.695312 0.734375 16.753906 -0.148438 13.359375 -1.921875 C 9.972656 -3.703125 7.335938 -6.25 5.453125 -9.5625 C 3.578125 -12.875 2.640625 -16.859375 2.640625 -21.515625 C 2.640625 -26.210938 3.585938 -30.226562 5.484375 -33.5625 C 7.390625 -36.894531 10.035156 -39.445312 13.421875 -41.21875 C 16.816406 -43 20.738281 -43.890625 25.1875 -43.890625 C 29.769531 -43.890625 33.753906 -43.007812 37.140625 -41.25 C 40.535156 -39.488281 43.171875 -36.941406 45.046875 -33.609375 C 46.929688 -30.285156 47.875 -26.296875 47.875 -21.640625 C 47.875 -16.941406 46.941406 -12.925781 45.078125 -9.59375 C 43.222656 -6.257812 40.597656 -3.703125 37.203125 -1.921875 C 33.816406 -0.148438 29.8125 0.734375 25.1875 0.734375 Z M 9.140625 -21.515625 C 9.140625 -16.328125 10.492188 -12.300781 13.203125 -9.4375 C 15.921875 -6.582031 19.914062 -5.15625 25.1875 -5.15625 C 30.539062 -5.15625 34.566406 -6.59375 37.265625 -9.46875 C 39.960938 -12.351562 41.3125 -16.367188 41.3125 -21.515625 C 41.3125 -26.742188 39.941406 -30.796875 37.203125 -33.671875 C 34.460938 -36.554688 30.457031 -38 25.1875 -38 C 19.957031 -38 15.972656 -36.566406 13.234375 -33.703125 C 10.503906 -30.847656 9.140625 -26.785156 9.140625 -21.515625 Z M 9.140625 -21.515625 "/></g></g></g></svg>